<svg width="26" height="23" viewBox="0 0 26 23" fill="none" xmlns="http://www.w3.org/2000/svg">
<path d="M25.4121 6.64625L13.2246 0.0837542C13.1223 0.0287754 13.0079 0 12.8918 0C12.7756 0 12.6613 0.0287754 12.559 0.0837542L0.371484 6.64625C0.259429 6.70619 0.165712 6.79538 0.1003 6.90433C0.0348878 7.01328 0.000225919 7.13792 0 7.265V14.765C-1.80166e-06 14.8918 0.034308 15.0163 0.099294 15.1253C0.16428 15.2342 0.257522 15.3235 0.369141 15.3838L12.5566 21.9463C12.659 22.0012 12.7733 22.03 12.8895 22.03C13.0056 22.03 13.1199 22.0012 13.2223 21.9463L25.4098 15.3838C25.5218 15.3238 25.6155 15.2346 25.6809 15.1257C25.7464 15.0167 25.781 14.8921 25.7812 14.765V7.265C25.7813 7.13816 25.7469 7.01368 25.682 6.90475C25.617 6.79582 25.5237 6.7065 25.4121 6.64625ZM24.375 13.5931L19.5973 11.015L24.375 8.43688V13.5931ZM18.1137 10.2216L13.5938 7.78297V1.87438L23.5945 7.265L18.1137 10.2216ZM12.8906 13.0341L9.15 11.015L12.8906 9.00055L16.6312 11.015L12.8906 13.0341ZM12.1875 1.87438V7.77828L7.66758 10.2158L2.18672 7.265L12.1875 1.87438ZM1.40625 8.43688L6.18398 11.015L1.40625 13.5931V8.43688ZM7.66758 11.8072L12.1875 14.247V20.1556L2.18672 14.765L7.66758 11.8072ZM13.5938 20.1556V14.247L18.1137 11.8131L23.5945 14.765L13.5938 20.1556Z" fill="#2A4F7B"/>
</svg>
