<svg width="20" height="22" viewBox="0 0 20 22" fill="none" xmlns="http://www.w3.org/2000/svg">
<path fill-rule="evenodd" clip-rule="evenodd" d="M12.7502 0H8.69424C6.85624 0 5.40024 0 4.26124 0.153C3.08924 0.311 2.14024 0.643 1.39124 1.391C0.643244 2.14 0.311244 3.089 0.153244 4.261C0.00024426 5.401 0.000244141 6.856 0.000244141 8.694V14.75C0.00026828 15.6434 0.31918 16.5075 0.899581 17.1867C1.47998 17.8659 2.28376 18.3157 3.16624 18.455C3.30324 19.219 3.56824 19.871 4.09824 20.402C4.70024 21.004 5.45824 21.262 6.35824 21.384C7.22524 21.5 8.32824 21.5 9.69524 21.5H12.8052C14.1722 21.5 15.2752 21.5 16.1422 21.384C17.0422 21.262 17.8002 21.004 18.4022 20.402C19.0042 19.8 19.2622 19.042 19.3842 18.142C19.5002 17.275 19.5002 16.172 19.5002 14.805V9.695C19.5002 8.328 19.5002 7.225 19.3842 6.358C19.2622 5.458 19.0042 4.7 18.4022 4.098C17.8712 3.568 17.2192 3.303 16.4552 3.166C16.3159 2.28351 15.8662 1.47974 15.1869 0.899337C14.5077 0.318936 13.6437 2.41393e-05 12.7502 0ZM14.8802 3.021C14.7282 2.577 14.4411 2.19166 14.0592 1.91893C13.6772 1.64619 13.2196 1.49971 12.7502 1.5H8.75024C6.84324 1.5 5.48924 1.502 4.46024 1.64C3.45524 1.775 2.87524 2.029 2.45224 2.452C2.02924 2.875 1.77524 3.455 1.64024 4.461C1.50224 5.489 1.50024 6.843 1.50024 8.75V14.75C1.49996 15.2193 1.64643 15.677 1.91917 16.0589C2.1919 16.4408 2.57724 16.7279 3.02124 16.88C3.00024 16.27 3.00024 15.58 3.00024 14.805V9.695C3.00024 8.328 3.00024 7.225 3.11724 6.358C3.23724 5.458 3.49724 4.7 4.09824 4.098C4.70024 3.496 5.45824 3.238 6.35824 3.117C7.22524 3 8.32824 3 9.69524 3H12.8052C13.5802 3 14.2702 3 14.8802 3.021ZM5.15824 5.16C5.43524 4.883 5.82324 4.703 6.55824 4.604C7.31224 4.503 8.31424 4.501 9.74924 4.501H12.7492C14.1842 4.501 15.1852 4.503 15.9412 4.604C16.6752 4.703 17.0632 4.884 17.3402 5.16C17.6172 5.437 17.7972 5.825 17.8962 6.56C17.9972 7.314 17.9992 8.316 17.9992 9.751V14.751C17.9992 16.186 17.9972 17.187 17.8962 17.943C17.7972 18.677 17.6162 19.065 17.3402 19.342C17.0632 19.619 16.6752 19.799 15.9402 19.898C15.1852 19.999 14.1842 20.001 12.7492 20.001H9.74924C8.31424 20.001 7.31224 19.999 6.55724 19.898C5.82324 19.799 5.43524 19.618 5.15824 19.342C4.88124 19.065 4.70124 18.677 4.60224 17.942C4.50124 17.187 4.49924 16.186 4.49924 14.751V9.751C4.49924 8.316 4.50124 7.314 4.60224 6.559C4.70124 5.825 4.88224 5.437 5.15824 5.16Z" fill="#555555"/>
</svg>
