<svg width="20" height="15" viewBox="0 0 20 15" fill="none" xmlns="http://www.w3.org/2000/svg">
<path d="M5.09016 11.781C6.83916 13.149 8.30916 13.587 10.0002 13.587C11.4712 13.587 13.3912 12.974 15.2382 11.668C16.5702 10.726 17.6712 9.353 18.5382 7.538C17.5982 5.906 16.5102 4.57 15.2752 3.525C13.5652 2.077 11.6932 1.413 9.96316 1.413C8.17316 1.413 6.11316 2.211 4.35516 3.887C3.08916 5.093 2.13016 6.307 1.47516 7.525C2.54016 9.314 3.74616 10.731 5.09016 11.781ZM10.0002 15C8.02616 15 6.26516 14.475 4.25916 12.906C2.68216 11.674 1.29516 10.005 0.0951624 7.906C0.0365614 7.8033 0.00400783 7.6878 0.000347088 7.56961C-0.00331366 7.45142 0.0220298 7.33413 0.0741624 7.228C0.808162 5.735 1.92516 4.278 3.42116 2.851C5.43816 0.928 7.83316 0 9.96316 0C12.0062 0 14.1862 0.775 16.1472 2.434C17.5962 3.66 18.8502 5.236 19.9102 7.156C20.0202 7.354 20.0302 7.595 19.9372 7.801C18.9492 10.001 17.6422 11.683 16.0162 12.833C13.9402 14.3 11.7492 15 9.99916 15M10.2332 11.4C9.74727 11.4 9.26614 11.3043 8.81723 11.1184C8.36833 10.9324 7.96044 10.6599 7.61687 10.3163C7.27329 9.97272 7.00075 9.56483 6.81481 9.11593C6.62887 8.66702 6.53316 8.18589 6.53316 7.7C6.53316 7.21411 6.62887 6.73298 6.81481 6.28407C7.00075 5.83517 7.27329 5.42728 7.61687 5.0837C7.96044 4.74013 8.36833 4.46759 8.81723 4.28165C9.26614 4.0957 9.74727 4 10.2332 4C11.2145 4 12.1556 4.38982 12.8495 5.0837C13.5433 5.77759 13.9332 6.7187 13.9332 7.7C13.9332 8.6813 13.5433 9.62241 12.8495 10.3163C12.1556 11.0102 11.2145 11.4 10.2332 11.4ZM10.2332 10C10.5352 10 10.8343 9.94051 11.1133 9.82492C11.3924 9.70934 11.6459 9.53992 11.8595 9.32635C12.0731 9.11277 12.2425 8.85922 12.3581 8.58017C12.4737 8.30112 12.5332 8.00204 12.5332 7.7C12.5332 7.39796 12.4737 7.09888 12.3581 6.81983C12.2425 6.54078 12.0731 6.28723 11.8595 6.07365C11.6459 5.86008 11.3924 5.69066 11.1133 5.57508C10.8343 5.45949 10.5352 5.4 10.2332 5.4C9.62316 5.4 9.03815 5.64232 8.60682 6.07365C8.17548 6.50499 7.93316 7.09 7.93316 7.7C7.93316 8.31 8.17548 8.89501 8.60682 9.32635C9.03815 9.75768 9.62316 10 10.2332 10Z" fill="#2C3E50"/>
</svg>
