<svg width="17" height="24" viewBox="0 0 17 24" fill="none" xmlns="http://www.w3.org/2000/svg">
<path d="M14.4097 7.87379C15.1736 7.37564 15.7584 6.63893 16.0767 5.77397C16.3949 4.909 16.4295 3.96234 16.1751 3.07572C15.9207 2.18911 15.3912 1.41025 14.6657 0.855783C13.9402 0.301314 13.0579 0.00106617 12.1508 0H4.19755C3.29047 0.00106617 2.40813 0.301314 1.68266 0.855783C0.957193 1.41025 0.427627 2.18911 0.173262 3.07572C-0.0811023 3.96234 -0.0465781 4.909 0.271665 5.77397C0.589909 6.63893 1.17475 7.37564 1.93861 7.87379C1.33215 8.26915 0.835768 8.81673 0.497191 9.46389C0.158615 10.111 -0.0107723 10.836 0.0053145 11.5691C0.0214013 12.3022 0.222421 13.0187 0.589048 13.6498C0.955675 14.281 1.47558 14.8054 2.09877 15.1728C1.42643 15.6209 0.879898 16.2391 0.512712 16.9669C0.145525 17.6947 -0.0297271 18.5072 0.00411778 19.3247C0.0379626 20.1422 0.279744 20.9368 0.705784 21.6305C1.13182 22.3243 1.72751 22.8935 2.43451 23.2824C3.1415 23.6712 3.93556 23.8665 4.73892 23.8489C5.54228 23.8314 6.32739 23.6016 7.01735 23.1822C7.70732 22.7628 8.27848 22.1682 8.6749 21.4564C9.07133 20.7447 9.27942 19.9403 9.27879 19.1221V14.5868C9.70352 14.9983 10.2082 15.3147 10.7603 15.5156C11.3125 15.7164 11.8998 15.7973 12.4845 15.7529C13.0691 15.7085 13.6382 15.5399 14.155 15.2579C14.6718 14.9759 15.1248 14.5868 15.4849 14.1157C15.845 13.6446 16.1042 13.1018 16.2458 12.5225C16.3874 11.9431 16.4082 11.34 16.3069 10.7519C16.2056 10.1639 15.9844 9.60395 15.6577 9.10823C15.3309 8.61252 14.9058 8.19201 14.4097 7.87379ZM15.0228 4.27434C15.0228 5.04998 14.7202 5.79385 14.1816 6.34231C13.643 6.89077 12.9125 7.19889 12.1508 7.19889H9.27879V1.34979H12.1508C12.9125 1.34979 13.643 1.65791 14.1816 2.20637C14.7202 2.75483 15.0228 3.4987 15.0228 4.27434ZM1.32554 4.27434C1.32554 3.4987 1.62813 2.75483 2.16673 2.20637C2.70534 1.65791 3.43585 1.34979 4.19755 1.34979H7.95325V7.19889H4.19755C3.43585 7.19889 2.70534 6.89077 2.16673 6.34231C1.62813 5.79385 1.32554 5.04998 1.32554 4.27434ZM4.19755 14.3978C3.43585 14.3978 2.70534 14.0897 2.16673 13.5412C1.62813 12.9927 1.32554 12.2489 1.32554 11.4732C1.32554 10.6976 1.62813 9.95373 2.16673 9.40527C2.70534 8.85681 3.43585 8.54869 4.19755 8.54869H7.95325V14.3978H4.19755ZM7.95325 19.1221C7.95325 19.7895 7.7589 20.4419 7.39477 20.9968C7.03064 21.5518 6.51308 21.9843 5.90755 22.2397C5.30203 22.4951 4.63572 22.5619 3.9929 22.4317C3.35007 22.3015 2.7596 21.9801 2.29615 21.5082C1.8327 21.0363 1.51708 20.435 1.38922 19.7804C1.26135 19.1258 1.32698 18.4473 1.57779 17.8307C1.82861 17.2141 2.25336 16.6871 2.79832 16.3163C3.34328 15.9455 3.98398 15.7476 4.6394 15.7476H7.95325V19.1221ZM12.1508 14.3978C11.5828 14.3978 11.0275 14.2263 10.5552 13.9049C10.0829 13.5836 9.71479 13.1268 9.49741 12.5924C9.28004 12.058 9.22316 11.47 9.33398 10.9027C9.4448 10.3354 9.71833 9.81427 10.12 9.40527C10.5216 8.99626 11.0334 8.71773 11.5905 8.60488C12.1476 8.49204 12.7251 8.54995 13.2499 8.77131C13.7747 8.99266 14.2232 9.3675 14.5388 9.84844C14.8544 10.3294 15.0228 10.8948 15.0228 11.4732C15.0228 12.2489 14.7202 12.9927 14.1816 13.5412C13.643 14.0897 12.9125 14.3978 12.1508 14.3978Z" fill="#2A4F7B"/>
</svg>
