<svg width="16" height="20" viewBox="0 0 16 20" fill="none" xmlns="http://www.w3.org/2000/svg">
<path d="M0.750244 15.25C0.949157 15.25 1.13992 15.329 1.28057 15.4697C1.42123 15.6103 1.50024 15.8011 1.50024 16V18.25C1.50024 18.388 1.61224 18.5 1.75024 18.5H14.2502C14.3165 18.5 14.3801 18.4737 14.427 18.4268C14.4739 18.3799 14.5002 18.3163 14.5002 18.25V16C14.5002 15.8011 14.5793 15.6103 14.7199 15.4697C14.8606 15.329 15.0513 15.25 15.2502 15.25C15.4492 15.25 15.6399 15.329 15.7806 15.4697C15.9212 15.6103 16.0002 15.8011 16.0002 16V18.25C16.0002 18.7141 15.8159 19.1592 15.4877 19.4874C15.1595 19.8156 14.7144 20 14.2502 20H1.75024C1.28612 20 0.840996 19.8156 0.512807 19.4874C0.184619 19.1592 0.000244141 18.7141 0.000244141 18.25V16C0.000244141 15.8011 0.0792617 15.6103 0.219914 15.4697C0.360566 15.329 0.551332 15.25 0.750244 15.25Z" fill="#555555"/>
<path d="M1.22032 7.97C1.36094 7.82955 1.55157 7.75066 1.75032 7.75066C1.94907 7.75066 2.13969 7.82955 2.28032 7.97L7.25032 12.939V0.75C7.25032 0.551088 7.32933 0.360322 7.46999 0.21967C7.61064 0.0790175 7.8014 0 8.00032 0C8.19923 0 8.38999 0.0790175 8.53065 0.21967C8.6713 0.360322 8.75032 0.551088 8.75032 0.75V12.939L13.7203 7.97C13.8609 7.82944 14.0515 7.75047 14.2503 7.75047C14.4491 7.75047 14.6398 7.82944 14.7803 7.97C14.9209 8.11057 14.9998 8.30121 14.9998 8.5C14.9998 8.69879 14.9209 8.88943 14.7803 9.03L8.53032 15.28C8.38969 15.4205 8.19907 15.4993 8.00032 15.4993C7.80157 15.4993 7.61094 15.4205 7.47032 15.28L1.22032 9.03C1.07987 8.88937 1.00098 8.69875 1.00098 8.5C1.00098 8.30125 1.07987 8.11063 1.22032 7.97Z" fill="#555555"/>
</svg>
