<svg width="12" height="18" viewBox="0 0 12 18" fill="none" xmlns="http://www.w3.org/2000/svg">
<path d="M2.35714 0C1.73199 0 1.13244 0.217299 0.690391 0.604092C0.248341 0.990886 0 1.51549 0 2.0625V15.9375C0 16.4845 0.248341 17.0091 0.690391 17.3959C1.13244 17.7827 1.73199 18 2.35714 18H9.64286C10.268 18 10.8676 17.7827 11.3096 17.3959C11.7517 17.0091 12 16.4845 12 15.9375V2.0625C12 1.51549 11.7517 0.990886 11.3096 0.604092C10.8676 0.217299 10.268 0 9.64286 0H2.35714ZM1.28571 2.0625C1.28571 1.545 1.76571 1.125 2.35714 1.125H9.64286C10.2343 1.125 10.7143 1.545 10.7143 2.0625V15.9375C10.7143 16.455 10.2343 16.875 9.64286 16.875H2.35714C1.76571 16.875 1.28571 16.455 1.28571 15.9375V2.0625ZM4.5 14.25C4.3295 14.25 4.16599 14.3093 4.04543 14.4148C3.92487 14.5202 3.85714 14.6633 3.85714 14.8125C3.85714 14.9617 3.92487 15.1048 4.04543 15.2102C4.16599 15.3157 4.3295 15.375 4.5 15.375H7.5C7.6705 15.375 7.83401 15.3157 7.95457 15.2102C8.07513 15.1048 8.14286 14.9617 8.14286 14.8125C8.14286 14.6633 8.07513 14.5202 7.95457 14.4148C7.83401 14.3093 7.6705 14.25 7.5 14.25H4.5Z" fill="#2C3E50"/>
</svg>
