<svg width="24" height="10" viewBox="0 0 24 10" fill="none" xmlns="http://www.w3.org/2000/svg">
<path d="M12 0C8.8 0 6.8 1.11111 6 3.33333C7.2 2.22222 8.6 1.80556 10.2 2.08333C11.113 2.24167 11.765 2.70139 12.488 3.21111C13.665 4.04028 15.026 5 18 5C21.2 5 23.2 3.88889 24 1.66667C22.8 2.77778 21.4 3.19444 19.8 2.91667C18.887 2.75833 18.235 2.29861 17.512 1.78889C16.336 0.959722 14.975 0 12 0ZM6 5C2.8 5 0.8 6.11111 0 8.33333C1.2 7.22222 2.6 6.80556 4.2 7.08333C5.113 7.24167 5.765 7.70139 6.488 8.21111C7.665 9.04028 9.026 10 12 10C15.2 10 17.2 8.88889 18 6.66667C16.8 7.77778 15.4 8.19444 13.8 7.91667C12.887 7.75833 12.235 7.29861 11.512 6.78889C10.336 5.95972 8.975 5 6 5Z" fill="#878EAB"/>
</svg>
